<svg xmlns="http://www.w3.org/2000/svg" viewBox="0 0 279.73 102.25"><defs><style>.cls-1{fill:#76b82a;}.cls-2{fill:#1d1d1b;}</style></defs><g id="Capa_2" data-name="Capa 2"><g id="Capa_1-2" data-name="Capa 1"><path class="cls-1" d="M152.09,25.91H144.9l-12,25.52h6.21l2.41-5h5l.05,5h6Zm-5.35,14.91h-3.17l3.08-6.16Z"/><path class="cls-2" d="M279.24,52.51h-7.18L260.07,78h6.22l2.4-5h5l0,5h6Zm-5.35,14.92h-3.17l3.09-6.17Z"/><path class="cls-1" d="M166.72,25.41c-5.36,0-8.86,3-10.12,8.65l-1.89,8.53c-.66,3-.38,5.31.85,6.85s3.08,2.15,5.72,2.15c5.37,0,8.87-3,10.12-8.65l.44-2h-6.25l-.5,2.23c-.5,2.27-1.48,2.73-2.91,2.73a1.82,1.82,0,0,1-1.37-.37,2.73,2.73,0,0,1-.06-2l2.16-9.72c.5-2.27,1.49-2.73,2.92-2.73a1.76,1.76,0,0,1,1.36.38,2.69,2.69,0,0,1,.06,2l-.37,1.67h5.59l.68-.07.14-.65c.67-3,.38-5.31-.85-6.84S169.37,25.41,166.72,25.41Z"/><polygon class="cls-1" points="191.91 25.74 175.01 25.74 173.75 31.42 179.07 31.42 174.67 51.26 180.93 51.26 185.32 31.42 190.65 31.42 191.91 25.74"/><polygon class="cls-1" points="187.53 51.26 193.78 51.26 199.44 25.74 193.19 25.74 187.53 51.26"/><polygon class="cls-1" points="217.62 25.74 200.72 25.74 199.47 31.42 204.79 31.42 200.39 51.26 206.64 51.26 211.04 31.42 216.36 31.42 217.62 25.74"/><path class="cls-1" d="M229.91,25.74l-3.84,17.35c-.44,1.95-1.42,2.82-3.21,2.82a1.91,1.91,0,0,1-1.52-.47,2.55,2.55,0,0,1-.11-2l3.92-17.7H218.9l-3.85,17.38c-.59,2.67-.3,4.77.88,6.23s3.22,2.24,6,2.24c5.46,0,9.1-2.88,10.26-8.12l3.93-17.73Z"/><path class="cls-1" d="M251.32,28c-1.24-1.49-3.3-2.21-6.3-2.21h-7l-5.66,25.52h7.38c5.93,0,9.42-2.82,11-8.91L252.33,35C252.93,31.8,252.6,29.5,251.32,28Zm-10.9,17.63h-.56L243,31.42h.93a2.52,2.52,0,0,1,2,.6c.41.52.45,1.58.09,3.16l-1.39,6.28C243.84,45.08,242.14,45.58,240.42,45.58Z"/><path class="cls-1" d="M131.38,42.91a54.94,54.94,0,0,0-7.6-24.18,49.58,49.58,0,0,1-1.85,10L120.27,34A50.4,50.4,0,0,1,27.94,70.43l1.63-2.83,18.14,0L45.46,84.49l20.17,0L71.41,0l-23.5,0L0,84.55l19.83,0L27,72.09A55.29,55.29,0,0,0,131.38,42.91ZM50.86,28.35,49.14,49.89H39Z"/><path class="cls-2" d="M149,61.76c.6-3.19.27-5.49-1-7s-3.29-2.21-6.3-2.21h-7L129.06,78h7.37c5.93,0,9.42-2.82,11-8.91Zm-11.9,10.59h-.56L139.7,58.2h.93a2.52,2.52,0,0,1,2,.59c.42.52.45,1.58.1,3.16l-1.4,6.28C140.54,71.85,138.84,72.35,137.13,72.35Z"/><polygon class="cls-2" points="162.02 67.72 163.28 62.04 157.23 62.04 158.08 58.2 166.02 58.2 167.28 52.51 153.09 52.51 147.43 78.03 161.95 78.03 163.21 72.35 154.94 72.35 155.97 67.72 162.02 67.72"/><path class="cls-2" d="M183.81,54.91c-1.28-1.59-3.53-2.4-6.69-2.4h-7.24L164.23,78h6.25l2.12-9.59H174c5.82,0,9.63-2.76,10.75-7.78C185.24,58.25,184.94,56.32,183.81,54.91Zm-8.88,3h1.79a2.26,2.26,0,0,1,1.68.51,2.41,2.41,0,0,1,.14,1.86A3.07,3.07,0,0,1,175.22,63H173.8Z"/><path class="cls-2" d="M202.44,61.19c.67-3,.38-5.32-.85-6.85s-3.07-2.16-5.72-2.16c-5.36,0-8.86,3-10.12,8.65l-1.89,8.53c-.66,3-.38,5.31.86,6.85s3.07,2.15,5.71,2.15c5.37,0,8.86-3,10.12-8.64ZM191.33,72.68c-.71,0-1.17-.12-1.37-.37a2.73,2.73,0,0,1-.06-2l2.16-9.72c.5-2.27,1.49-2.73,2.92-2.73a1.76,1.76,0,0,1,1.36.38,2.7,2.7,0,0,1,.06,2L194.24,70C193.74,72.23,192.75,72.68,191.33,72.68Z"/><path class="cls-2" d="M213.65,52.51h-7.28L200.72,78H207l2.15-9.72H210L211.77,78h6.58l-2.2-11c2.5-1.11,4.12-3.26,4.82-6.42.54-2.46.25-4.42-.88-5.83S216.68,52.51,213.65,52.51Zm-2.23,5.42h1.69a2.07,2.07,0,0,1,1.57.49,2.37,2.37,0,0,1,.13,1.81,3,3,0,0,1-3.17,2.67h-1.32Z"/><polygon class="cls-2" points="240.26 52.51 223.36 52.51 222.1 58.2 227.43 58.2 223.03 78.03 229.28 78.03 233.68 58.2 239 58.2 240.26 52.51"/><polygon class="cls-2" points="235.88 78.03 242.13 78.03 247.79 52.51 241.54 52.51 235.88 78.03"/><polygon class="cls-2" points="262.8 52.51 256.05 67 255.69 52.51 249.54 52.51 250.42 78.03 256.93 78.03 269.09 52.51 262.8 52.51"/><path class="cls-2" d="M118,7.22C114.3,2.36,107.61,0,97.54,0L76.43,0,69,84.46h3.22c19.88,0,32.36-9.32,39.32-29.3L119.3,30.4C122.26,19.88,121.82,12.3,118,7.22ZM88.57,17.7h4c3.73,0,6.06.71,7.15,2.19,1.38,1.88,1.19,5.52-.57,11.13L92.49,52.16c-3.22,10.23-8.21,14.59-16.7,14.61H73.15Z"/></g></g></svg>